<svg xmlns="http://www.w3.org/2000/svg" xmlns:xlink="http://www.w3.org/1999/xlink" width="40" zoomAndPan="magnify" viewBox="0 0 30 30.000001" height="40" preserveAspectRatio="xMidYMid meet" version="1.0"><defs><g/><clipPath id="9865381082"><path d="M 0.484375 0 L 29.515625 0 L 29.515625 29.03125 L 0.484375 29.03125 Z M 0.484375 0 " clip-rule="nonzero"/></clipPath></defs><g clip-path="url(#9865381082)"><path fill="#ffffff" d="M 0.484375 0 L 29.515625 0 L 29.515625 29.03125 L 0.484375 29.03125 Z M 0.484375 0 " fill-opacity="1" fill-rule="nonzero"/><path fill="#fafffe" d="M 0.484375 0 L 29.515625 0 L 29.515625 29.03125 L 0.484375 29.03125 Z M 0.484375 0 " fill-opacity="1" fill-rule="nonzero"/><rect x="-3" width="36" fill="#0a192f" y="-3" height="36.000001" fill-opacity="1"/></g><g fill="#5ce1e6" fill-opacity="1"><g transform="translate(-0.261712, 21.301461)"><g><path d="M 4.96875 0 L 1.78125 0 L 1.78125 -15.921875 L 8.046875 -15.921875 C 8.941406 -15.921875 9.703125 -15.738281 10.328125 -15.375 C 10.960938 -15.019531 11.460938 -14.550781 11.828125 -13.96875 C 12.203125 -13.394531 12.453125 -12.753906 12.578125 -12.046875 C 12.710938 -11.347656 12.710938 -10.644531 12.578125 -9.9375 C 12.453125 -9.238281 12.203125 -8.597656 11.828125 -8.015625 C 11.453125 -7.441406 10.945312 -6.976562 10.3125 -6.625 C 9.675781 -6.269531 8.921875 -6.09375 8.046875 -6.09375 L 4.96875 -6.09375 Z M 4.96875 -9.1875 L 7.78125 -9.1875 C 8.207031 -9.1875 8.546875 -9.304688 8.796875 -9.546875 C 9.054688 -9.785156 9.226562 -10.082031 9.3125 -10.4375 C 9.40625 -10.789062 9.40625 -11.144531 9.3125 -11.5 C 9.226562 -11.863281 9.054688 -12.160156 8.796875 -12.390625 C 8.546875 -12.628906 8.207031 -12.75 7.78125 -12.75 L 4.96875 -12.75 Z M 4.96875 -9.1875 "/></g></g></g><g fill="#5ce1e6" fill-opacity="1"><g transform="translate(12.067273, 21.301461)"><g><path d="M 9.09375 -9.1875 L 15.390625 -16.1875 L 16.390625 -16.1875 L 16.390625 0 L 13.15625 0 L 13.171875 -8.890625 L 9.09375 -4.609375 L 5.015625 -8.890625 L 5.015625 0 L 1.78125 0 L 1.78125 -16.1875 L 2.8125 -16.1875 Z M 9.09375 -9.1875 "/></g></g></g></svg>